<?xml version="1.0" encoding="UTF-8"?>
<svg width="14px" height="8px" viewBox="0 0 14 8" version="1.1" xmlns="http://www.w3.org/2000/svg" xmlns:xlink="http://www.w3.org/1999/xlink">
    <title>chevron-down</title>
    <g id="Symbols-library" stroke="none" stroke-width="1" fill="none" fill-rule="evenodd">
        <g id="Icons" transform="translate(-192.000000, -302.000000)">
            <g id="Group" transform="translate(110.000000, 94.000000)">
                <g transform="translate(67.000000, 190.000000)" id="chevron-down">
                    <path d="M44,0 L44,44 L0,44 L0,0 L44,0 Z M33,11 L11,11 L11,33 L33,33 L33,11 Z" id="Combined-Shape" fill-opacity="0" fill="#FFC0C0"></path>
                    <g id="Icon" transform="translate(11.000000, 11.000000)" fill="#000000">
                        <path d="M4.29289322,7.29289322 C4.68341751,6.90236893 5.31658249,6.90236893 5.70710678,7.29289322 L5.70710678,7.29289322 L11,12.585 L16.2928932,7.29289322 C16.6533772,6.93240926 17.2206082,6.90467972 17.6128994,7.20970461 L17.7071068,7.29289322 C18.0976311,7.68341751 18.0976311,8.31658249 17.7071068,8.70710678 L17.7071068,8.70710678 L11.7071068,14.7071068 C11.5569051,14.8573084 11.3708099,14.9497402 11.1764315,14.9844021 L11.0590314,14.9982669 L11.0590314,14.9982669 L10.9409686,14.9982669 C10.705064,14.9844021 10.4731352,14.8873488 10.2928932,14.7071068 L10.2928932,14.7071068 L4.29289322,8.70710678 C3.90236893,8.31658249 3.90236893,7.68341751 4.29289322,7.29289322 Z"></path>
                    </g>
                </g>
            </g>
        </g>
    </g>
</svg>