<?xml version="1.0" encoding="UTF-8"?>
<svg width="20px" height="20px" viewBox="0 0 20 20" version="1.1" xmlns="http://www.w3.org/2000/svg" xmlns:xlink="http://www.w3.org/1999/xlink">
    <title>eraser</title>
    <g id="Symbols-library" stroke="none" stroke-width="1" fill-rule="evenodd">
        <g id="Icons" transform="translate(-122.000000, -169.000000)">
            <g id="Group" transform="translate(110.000000, 94.000000)">
                <g transform="translate(0.000000, 63.000000)" id="eraser">
                    <path d="M44,0 L44,44 L0,44 L0,0 L44,0 Z M33,11 L11,11 L11,33 L33,33 L33,11 Z" id="Combined-Shape" fill-opacity="0" fill="#FFC0C0"></path>
                    <g id="Icon" transform="translate(11.000000, 11.000000)" >
                        <path d="M5.0507,8.69908644 L13.3007604,16.9491468 L12.59396,17.6562535 L10.2868068,19.9644068 C8.90528249,21.3459311 6.66511751,21.3459311 5.28359322,19.9644068 L2.03659322,16.7174068 C0.654009481,15.334823 0.654009481,13.094383 2.03659322,11.7131932 L5.0507,8.69908644 Z M5.05069997,11.5275135 L3.45045011,13.1277633 C2.84939052,13.728217 2.84939052,14.701777 3.45080678,15.3031932 L6.69780678,18.5501932 C7.29828249,19.1506689 8.27211751,19.1506689 8.87244002,18.5503465 L10.4726396,16.9494532 L5.05069997,11.5275135 Z M10.9738,1.0002 L20.9998,11.0262 L15.5308,16.4952 L5.5048,6.4682 L10.9738,1.0002 Z"></path>
                    </g>
                </g>
            </g>
        </g>
    </g>
</svg>