<?xml version="1.0" encoding="UTF-8"?>
<svg width="20px" height="22px" viewBox="0 0 20 22" version="1.1" xmlns="http://www.w3.org/2000/svg" xmlns:xlink="http://www.w3.org/1999/xlink">
    <title>selection</title>
    <g id="Symbols-library" stroke="none" stroke-width="1" fill-rule="evenodd">
        <g id="Icons" transform="translate(-122.000000, -105.000000)">
            <g id="selection" transform="translate(110.000000, 94.000000)">
                <path d="M44,0 L44,44 L0,44 L0,0 L44,0 Z M33,11 L11,11 L11,33 L33,33 L33,11 Z" id="Combined-Shape" fill-opacity="0" fill="#FFC0C0"></path>
                <g id="Icon" transform="translate(11.000000, 11.000000)">
                    <path d="M12,14 L19,18.1452175 L14.9360731,18.5543442 L12.8310502,22 L12,14 Z M6.37016013,17.1008522 C7.04808887,17.5749794 7.78980124,17.9386934 8.57525094,18.1854994 C9.05545047,18.3367376 9.32516406,18.8563291 9.17663935,19.3462296 C9.04998331,19.766542 8.65452487,20.0281935 8.24175374,19.9975747 C8.17432534,19.9929355 8.10507456,19.9799457 8.03673496,19.9595332 C7.0772471,19.6570567 6.16878613,19.2098369 5.33959909,18.6308635 C4.92500557,18.3413768 4.819307,17.7642591 5.1035997,17.3411632 C5.3878924,16.9180673 5.95374422,16.8095098 6.37016013,17.1008522 Z M20.1547113,9.94626302 C20.6567795,9.9833767 21.0340141,10.4268851 20.9975663,10.938126 C20.9255819,11.9633914 20.7050728,12.9645328 20.3424174,13.9118594 C20.1938927,14.3006252 19.8166581,14.5298022 19.4284893,14.5010391 C19.3391922,14.4945442 19.2498951,14.4750595 19.1624204,14.4407293 C18.6940664,14.255161 18.4608006,13.7170126 18.6439507,13.2401019 C18.9410002,12.4634982 19.1214167,11.6451416 19.1806443,10.8054446 C19.2161809,10.2932759 19.6526431,9.90914934 20.1547113,9.94626302 Z M2.81923496,10.8008054 C2.87755141,11.6358632 3.05705674,12.4551476 3.35592855,13.2345348 C3.53816746,13.7123734 3.30672404,14.2505217 2.83745885,14.4360901 C2.70806922,14.4871214 2.57321243,14.5066061 2.44200041,14.4963999 C2.10212485,14.472276 1.78958511,14.2533053 1.6574619,13.9081481 C1.29298408,12.9543266 1.072475,11.9531851 1.00231302,10.9316312 C0.966776434,10.4203902 1.34492217,9.97595396 1.84699037,9.93976813 C2.34541379,9.90358229 2.78460957,10.2904924 2.81923496,10.8008054 Z M17.8858369,2.78981819 C18.6157037,3.49312237 19.2362272,4.30034486 19.7300947,5.19014527 C19.9788508,5.63736508 19.8239477,6.20334866 19.3865743,6.45479382 C19.2243817,6.54850586 19.0457875,6.58561954 18.8726606,6.57262975 C18.5792559,6.55221723 18.3004304,6.38613352 18.1446161,6.10406957 C17.7391346,5.37571366 17.230688,4.71323452 16.6329444,4.13704468 C16.2675554,3.78539258 16.252065,3.19806864 16.598319,2.82600402 C16.9454841,2.45393941 17.5204479,2.43909394 17.8858369,2.78981819 Z M5.51363725,2.74249825 C5.85351282,3.12012992 5.82799937,3.70652602 5.45714319,4.05261106 C4.84937642,4.62045032 4.33181791,5.27365104 3.91722439,5.99458423 C3.73680787,6.31005048 3.39966589,6.47613419 3.06434629,6.45108246 C2.93040069,6.44180404 2.7955439,6.40097899 2.67071025,6.32767948 C2.23698164,6.06881158 2.09027932,5.50004448 2.3445026,5.05746387 C2.85112677,4.17601404 3.48440698,3.37714213 4.22611935,2.68589989 C4.59697553,2.33981485 5.17376168,2.36486658 5.51363725,2.74249825 Z M11.7061154,0.0267049111 C12.0286783,0.055468011 12.2856352,0.0814475851 12.5690167,0.12691184 C13.0674401,0.204850562 13.4073157,0.679905632 13.3298641,1.18650733 C13.2524126,1.69218118 12.7795026,2.04197759 12.2892799,1.95939966 C12.0551029,1.92321382 11.8154588,1.89352288 11.577637,1.87774957 C10.9944725,1.83506884 10.4094856,1.85548136 9.8363442,1.93898714 C9.7707382,1.94826555 9.70513219,1.95012124 9.64134857,1.94548203 C9.22311027,1.91486325 8.8668332,1.59104641 8.80578317,1.15124933 C8.7337988,0.643719797 9.08096392,0.174231778 9.57847615,0.101860108 C10.280096,-0.00020250501 10.9962949,-0.0261820791 11.7061154,0.0267049111 Z"></path>
                </g>
            </g>
        </g>
    </g>
</svg>